#!OML:ASF F:\twosubjects\two\wednesday\Session 1\rory1.ASF
:FULLY-SPECIFIED
:DEGREES
165
root -1.89908 18.3012 -0.976172 -170.076 4.95541 -175.365
lowerback 2.78098 0.302317 1.04596
upperback 2.30903 0.518331 1.34982
thorax 0.803293 0.305206 0.786446
lowerneck -11.5746 -2.89678 -2.73402
upperneck 9.30307 -3.58313 1.31242
head 4.75488 -1.76834 0.582088
rclavicle -9.93923e-017 -5.56597e-015
rhumerus -53.8519 -42.6322 -42.7541
rradius 33.2981
rwrist -45.7164
rhand -42.3898 35.7417
rfingers 7.12502
rthumb -15.2707 6.32539
lclavicle -9.93923e-017 -5.56597e-015
lhumerus -36.0271 19.5184 70.9248
lradius 22.0784
lwrist -6.12371
lhand -22.2062 19.3609
lfingers 7.12502
lthumb 4.20967 49.299
rfemur 12.5182 10.3456 26.3037
rtibia 14.2966
rfoot 1.79281 4.8664
rtoes -4.28615
lfemur -33.5208 -7.38529 -10.1636
ltibia 21.0525
lfoot -4.48339 10.3236
ltoes -18.2358
166
root -1.91685 18.287 -1.18298 -170.375 4.68754 -175.696
lowerback 2.92425 0.300852 0.485664
upperback 2.20704 0.499755 1.24776
thorax 0.615011 0.285862 0.994461
lowerneck -11.4094 -2.84658 -2.7254
upperneck 9.225 -3.52777 1.36936
head 4.70323 -1.73789 0.605331
rclavicle 3.23025e-015 -3.97569e-015
rhumerus -53.4743 -42.4038 -43.0081
rradius 33.4037
rwrist -45.0384
rhand -41.9841 35.2134
rfingers 7.12502
rthumb -14.8799 5.76778
lclavicle 3.23025e-015 -3.97569e-015
lhumerus -35.4343 19.3517 71.2973
lradius 22.1169
lwrist -5.40971
lhand -22.4601 18.5666
lfingers 7.12502
lthumb 3.9645 48.5095
rfemur 12.2305 10.1823 25.9957
rtibia 16.1714
rfoot 2.7851 5.3678
rtoes -5.31231
lfemur -33.2615 -7.39378 -10.8787
ltibia 22.0912
lfoot -3.43692 9.21815
ltoes -19.3207
167
root -1.93492 18.2794 -1.39077 -170.389 4.44316 -176.462
lowerback 2.73182 0.297922 -0.514392
upperback 2.13257 0.460381 1.01283
thorax 0.641565 0.2503 1.31629
lowerneck -11.7364 -2.7874 -2.74464
upperneck 9.27363 -3.46187 1.56318
head 4.77469 -1.69299 0.66866
rclavicle -1.98785e-015 -6.36111e-015
rhumerus -52.7565 -42.538 -43.4968
rradius 33.392
rwrist -43.7822
rhand -42.2713 34.4213
rfingers 7.12502
rthumb -15.1565 4.99636
lclavicle -1.98785e-015 -6.36111e-015
lhumerus -34.773 19.2589 71.6875
lradius 22.3243
lwrist -4.85985
lhand -22.2179 17.6775
lfingers 7.12502
lthumb 4.19838 47.6159
rfemur 11.3719 9.92261 25.0946
rtibia 18.404
rfoot 3.84176 5.93343
rtoes -6.45185
lfemur -33.2655 -7.44363 -12.0317
ltibia 23.1623
lfoot -2.6575 8.39696
ltoes -19.6189
168
root -1.95776 18.2701 -1.59692 -170.411 4.10795 -176.902
lowerback 2.57332 0.317358 -1.0266
upperback 2.02756 0.466862 0.755549
thorax 0.620849 0.245439 1.34027
lowerneck -11.9735 -2.77309 -2.72843
upperneck 9.42946 -3.48579 1.93188
head 4.86909 -1.67848 0.774492
rclavicle -1.32192e-014 -1.11319e-014
rhumerus -52.1901 -42.9373 -43.8283
rradius 33.1753
rwrist -42.6384
rhand -42.2235 35.0622
rfingers 7.12502
rthumb -15.1105 5.63377
lclavicle -1.32192e-014 -1.11319e-014
lhumerus -34.1576 18.5146 72.1863
lradius 22.713
lwrist -3.8341
lhand -22.7034 17.7105
lfingers 7.12502
lthumb 3.72954 47.6576
rfemur 10.3292 9.51068 24.4885
rtibia 20.9228
rfoot 5.30325 6.26159
rtoes -5.79853
lfemur -33.2042 -7.5415 -12.8
ltibia 24.1632
lfoot -2.16523 7.52003
ltoes -17.8213
169
root -1.97841 18.2557 -1.79982 -170.544 3.76451 -176.729
lowerback 2.52131 0.418313 -0.919553
upperback 1.89591 0.597238 0.664044
thorax 0.512775 0.310747 1.18343
lowerneck -11.8504 -2.86147 -2.73087
upperneck 9.5258 -3.64587 2.2544
head 4.88867 -1.73521 0.86351
rclavicle -6.95746e-016 9.14409e-015
rhumerus -51.9249 -43.0593 -44.1205
rradius 33.2346
rwrist -41.8961
rhand -42.1812 35.1388
rfingers 7.12502
rthumb -15.0697 5.70731
lclavicle -6.95746e-016 9.14409e-015
lhumerus -33.5574 17.1518 72.9151
lradius 23.1576
lwrist -2.15509
lhand -23.7773 17.8374
lfingers 7.12502
lthumb 2.69244 47.8002
rfemur 9.30965 9.15757 24.6047
rtibia 23.5189
rfoot 7.32247 6.4331
rtoes -3.5104
lfemur -32.9555 -7.31392 -12.9909
ltibia 25.098
lfoot -1.76367 6.64532
ltoes -16.4915
170
root -2.00204 18.2399 -2.00222 -170.576 3.62679 -176.762
lowerback 2.24436 0.48153 -1.07817
upperback 1.78531 0.673132 0.606974
thorax 0.551261 0.344448 1.21429
lowerneck -11.7971 -2.87865 -2.75498
upperneck 9.70358 -3.6685 2.27036
head 4.93639 -1.74493 0.870324
rclavicle 1.04362e-014 1.27222e-014
rhumerus -51.2849 -42.8366 -44.8361
rradius 33.536
rwrist -41.4105
rhand -42.1612 35.186
rfingers 7.12502
rthumb -15.0505 5.75308
lclavicle 1.04362e-014 1.27222e-014
lhumerus -33.0023 16.3383 73.6282
lradius 23.6188
lwrist -0.820172
lhand -14.2353 26.7986
lfingers 7.12502
lthumb 11.9022 56.4403
rfemur 8.14293 8.95731 24.3996
rtibia 26.0009
rfoot 10.0157 6.61881
rtoes -0.623095
lfemur -32.8112 -6.82264 -13.5162
ltibia 26.0791
lfoot -1.67404 6.04036
ltoes -16.9133
171
root -2.03229 18.2415 -2.2073 -170.62 3.60047 -177.153
lowerback 1.97636 0.528586 -1.50708
upperback 1.76399 0.729004 0.42262
thorax 0.675262 0.366577 1.26761
lowerneck -12.2634 -2.90496 -2.79486
upperneck 10.1905 -3.70111 2.35175
head 5.16839 -1.75071 0.890736
rclavicle 5.76476e-015 6.75868e-015
rhumerus -50.2892 -42.7307 -45.7967
rradius 33.7537
rwrist -41.0193
rhand -41.8428 36.0041
rfingers 7.12502
rthumb -14.7437 6.54848
lclavicle 5.76476e-015 6.75868e-015
lhumerus -32.2199 15.9018 74.2758
lradius 23.9804
lwrist 0.148512
lhand -23.7253 23.6106
lfingers 7.12502
lthumb 2.74266 53.5727
rfemur 6.88083 8.71434 23.6776
rtibia 28.5151
rfoot 12.853 6.63112
rtoes 3.38245
lfemur -32.6322 -6.44974 -14.4048
ltibia 27.035
lfoot -2.09008 5.47005
ltoes -15.4101
172
root -2.06107 18.253 -2.41064 -170.838 3.70538 -177.303
lowerback 1.98549 0.657313 -1.67783
upperback 1.76681 0.899016 0.294066
thorax 0.667048 0.450797 1.22907
lowerneck -12.7694 -3.00654 -3.03688
upperneck 10.7633 -3.83154 2.68495
head 5.44661 -1.79241 1.01351
rclavicle -7.05686e-015 3.18055e-015
rhumerus -49.2195 -42.513 -46.8195
rradius 33.9363
rwrist -40.6739
rhand -41.6865 35.892
rfingers 7.12502
rthumb -14.5932 6.42541
lclavicle -7.05686e-015 3.18055e-015
lhumerus -31.4224 15.308 74.9244
lradius 24.2524
lwrist 1.09493
lhand -27.1428 21.437
lfingers 7.12502
lthumb -0.55803 51.416
rfemur 5.66471 8.66626 23.2456
rtibia 31.2203
rfoot 15.7085 6.41881
rtoes 8.29732
lfemur -32.1258 -6.01909 -14.9781
ltibia 27.8128
lfoot -2.74917 4.60485
ltoes -8.15182
173
root -2.08635 18.2508 -2.60788 -171.084 4.03363 -177.422
lowerback 1.99207 0.827495 -1.89772
upperback 1.73651 1.12238 0.169644
thorax 0.623341 0.561379 1.22106
lowerneck -12.9986 -3.03208 -3.04329
upperneck 11.2989 -3.87209 2.75542
head 5.65591 -1.79993 1.02784
rclavicle 1.10325e-014 1.15295e-014
rhumerus -47.9802 -41.9378 -48.1279
rradius 34.0242
rwrist -40.4075
rhand -41.6982 35.9391
rfingers 7.12502
rthumb -14.6044 6.47335
lclavicle 1.10325e-014 1.15295e-014
lhumerus -30.8306 14.6775 75.4454
lradius 24.6138
lwrist 1.87022
lhand -26.8459 21.1318
lfingers 7.12502
lthumb -0.271244 51.1114
rfemur 4.35188 8.78126 22.8037
rtibia 34.0425
rfoot 18.8934 6.26439
rtoes 11.3054
lfemur -31.3947 -5.47336 -15.5104
ltibia 28.3952
lfoot -3.39429 3.81613
ltoes 1.64328
174
root -2.11337 18.2469 -2.79826 -171.315 4.45874 -178.007
lowerback 1.99115 0.918873 -2.59236
upperback 1.67277 1.23562 -0.110098
thorax 0.547157 0.614738 1.32103
lowerneck -13.2558 -2.94319 -2.80766
upperneck 11.9335 -3.76175 2.5343
head 5.887 -1.74358 0.924112
rclavicle -9.24349e-015 1.98785e-015
rhumerus -46.4461 -41.1556 -49.7969
rradius 34.0246
rwrist -39.8458
rhand -41.7792 35.9519
rfingers 7.12502
rthumb -14.6824 6.49173
lclavicle -9.24349e-015 1.98785e-015
lhumerus -30.3429 14.0657 75.8583
lradius 25.1811
lwrist 2.78425
lhand -26.5256 21.7767
lfingers 7.12502
lthumb 0.038138 51.7565
rfemur 2.85754 8.89779 21.7799
rtibia 36.8836
rfoot 21.9105 7.08267
rtoes 9.45157
lfemur -30.62 -5.11227 -16.5226
ltibia 28.887
lfoot -4.08174 3.61822
ltoes -10.1049
175
root -2.14413 18.2438 -2.981 -171.598 4.90469 -178.819
lowerback 2.10536 1.00492 -3.41779
upperback 1.57244 1.33844 -0.460422
thorax 0.367193 0.666909 1.41876
lowerneck -13.4094 -2.85597 -2.72503
upperneck 12.5313 -3.63832 2.42028
head 6.0952 -1.67985 0.881985
rclavicle -1.92821e-014 3.57812e-015
rhumerus -45.0449 -40.6166 -51.2101
rradius 34.0458
rwrist -39.0246
rhand -41.4902 35.5111
rfingers 7.12502
rthumb -14.404 6.0309
lclavicle -1.92821e-014 3.57812e-015
lhumerus -29.8036 13.5607 76.2684
lradius 25.6435
lwrist 3.67954
lhand -26.3405 22.3785
lfingers 7.12502
lthumb 0.216924 52.3581
rfemur 1.34928 9.3506 20.6045
rtibia 39.739
rfoot 24.2355 8.37739
rtoes 7.52522
lfemur -29.8006 -4.86087 -17.7667
ltibia 29.2778
lfoot -4.69713 3.77249
ltoes -14.3028
176
root -2.1691 18.2302 -3.15897 -171.825 5.27266 -179.275
lowerback 2.19561 1.19877 -3.882
upperback 1.512 1.59059 -0.710995
thorax 0.237798 0.796384 1.41324
lowerneck -13.7379 -2.89429 -2.71213
upperneck 13.1835 -3.69469 2.48422
head 6.36111 -1.69004 0.888739
rclavicle 2.0773e-014 7.95139e-015
rhumerus -43.7636 -40.1676 -52.489
rradius 34.1488
rwrist -38.7236
rhand -41.1913 36.0823
rfingers 7.12502
rthumb -14.1159 6.58184
lclavicle 2.0773e-014 7.95139e-015
lhumerus -28.9989 12.996 76.7608
lradius 25.8011
lwrist 4.10727
lhand -25.4117 23.0905
lfingers 7.12502
lthumb 1.11392 53.0674
rfemur -0.0874407 9.8922 19.9233
rtibia 42.5718
rfoot 26.4478 7.49693
rtoes 12.8993
lfemur -29.0279 -4.54042 -18.5861
ltibia 29.522
lfoot -5.1246 3.68717
ltoes -14.4373
177
root -2.18822 18.2216 -3.33589 -172.061 5.55572 -179.497
lowerback 2.37848 1.36464 -4.07759
upperback 1.49358 1.80588 -0.905509
thorax 0.106014 0.909237 1.31291
lowerneck -14.2928 -2.94275 -2.58867
upperneck 13.8837 -3.75726 2.36534
head 6.67708 -1.71129 0.815158
rclavicle -1.40143e-014 -1.23246e-014
rhumerus -42.152 -39.48 -54.1541
rradius 34.1919
rwrist -38.3387
rhand -41.6672 36.2705
rfingers 7.12502
rthumb -14.5745 6.80253
lclavicle -1.40143e-014 -1.23246e-014
lhumerus -28.0931 12.2411 77.264
lradius 25.8705
lwrist 4.52984
lhand -23.0199 24.1664
lfingers 7.12502
lthumb 3.42385 54.1186
rfemur -1.55029 10.0426 19.513
rtibia 45.3991
rfoot 28.6322 5.59511
rtoes 17.8246
lfemur -28.1864 -4.18328 -19.1242
ltibia 29.5963
lfoot -5.52558 3.37795
ltoes -14.4197
178
root -2.21378 18.2269 -3.51131 -172.402 5.95825 -179.976
lowerback 2.66135 1.4744 -4.48779
upperback 1.42103 1.93501 -1.132
thorax -0.138068 0.981998 1.29667
lowerneck -14.397 -2.8984 -2.51864
upperneck 14.3899 -3.65531 2.07477
head 6.8485 -1.67501 0.717775
rclavicle 1.88845e-015 2.50469e-014
rhumerus -40.3055 -39.0455 -55.711
rradius 33.8614
rwrist -37.2527
rhand -41.7615 35.3154
rfingers 7.12502
rthumb -14.6654 5.85406
lclavicle 1.88845e-015 2.50469e-014
lhumerus -27.453 11.4068 77.7431
lradius 26.0763
lwrist 5.26111
lhand -19.5787 25.4806
lfingers 7.12502
lthumb 6.74651 55.3531
rfemur -3.16434 10.0368 18.7314
rtibia 48.2587
rfoot 29.8733 5.25444
rtoes 16.4527
lfemur -27.1578 -3.87131 -19.9528
ltibia 29.4907
lfoot -5.98861 3.32733
ltoes -13.7266
179
root -2.24597 18.242 -3.69318 -172.726 6.31783 -180.751
lowerback 2.75451 1.54241 -5.21448
upperback 1.39806 2.01819 -1.40753
thorax -0.231001 1.03065 1.41282
lowerneck -14.4805 -2.84477 -2.40436
upperneck 14.8729 -3.5536 1.82493
head 7.00992 -1.63301 0.626555
rclavicle 2.80286e-014 -2.74323e-014
rhumerus -38.209 -38.6303 -57.3298
rradius 33.3897
rwrist -36.3015
rhand -41.3714 35.0811
rfingers 7.12502
rthumb -14.2895 5.59275
lclavicle 2.80286e-014 -2.74323e-014
lhumerus -26.753 10.7756 78.1713
lradius 26.3596
lwrist 5.26404
lhand -23.0353 21.6282
lfingers 7.12502
lthumb 3.40896 51.5807
rfemur -4.93664 9.93373 17.4758
rtibia 51.0817
rfoot 30.2198 4.60738
rtoes 15.2322
lfemur -26.0549 -3.65687 -21.1196
ltibia 29.2513
lfoot -6.64192 3.34379
ltoes -11.7362
